<?xml version="1.0" encoding="utf-8"?>
<!-- Generator: Adobe Illustrator 21.0.0, SVG Export Plug-In . SVG Version: 6.00 Build 0)  -->
<svg version="1.1" id="Layer_1" xmlns="http://www.w3.org/2000/svg" xmlns:xlink="http://www.w3.org/1999/xlink" x="0px" y="0px"
	 viewBox="0 0 15 15" style="enable-background:new 0 0 15 15;" xml:space="preserve">
<style type="text/css">
	.st0{fill:#FFFFFF;}
</style>
<g>
	<path class="st0" d="M12.5,3.5c0.9,1.1,1.3,2.4,1.3,3.7c0,1.6-0.6,3.1-1.8,4.3c-1.1,1.1-2.6,1.8-4.2,1.8c-1.4,0-2.7-0.5-3.7-1.3
		l-1,1l-1.2-1.2l1-1.1c-0.7-1-1.1-2.2-1.1-3.5c0-1.6,0.6-3.1,1.8-4.3c1.1-1.1,2.6-1.7,4.2-1.7c1.2,0,2.4,0.4,3.4,1.1l0.9-0.9
		l1.2,1.2L12.5,3.5z M4.5,9.2L9.7,4C9.2,3.6,8.5,3.4,7.8,3.4C5.7,3.4,4,5.2,4,7.3C4,8,4.2,8.6,4.5,9.2z M11.7,7.3
		c0-0.8-0.3-1.6-0.7-2.2l-5.4,5.3c0.6,0.5,1.4,0.7,2.2,0.7C10,11.1,11.7,9.4,11.7,7.3z"/>
</g>
</svg>
