<svg width="78px" height="88px" viewBox="681 453 78 88" version="1.1" xmlns="http://www.w3.org/2000/svg" xmlns:xlink="http://www.w3.org/1999/xlink">
    <defs></defs>
    <path d="M721.857143,460.513952 L721.857143,453 L718.142857,453 L718.142857,460.513952 C697.502571,461.491452 681,478.518871 681,499.370968 L681,503.080645 L684.714286,503.080645 C684.714286,498.988871 688.046,495.66129 692.142857,495.66129 C696.239714,495.66129 699.571429,498.988871 699.571429,503.080645 L703.285714,503.080645 C703.285714,498.988871 706.617429,495.66129 710.714286,495.66129 C714.811143,495.66129 718.142857,498.988871 718.142857,503.080645 L718.142857,532.758065 C718.142857,536.849839 721.474571,540.177419 725.571429,540.177419 C729.668286,540.177419 733,536.849839 733,532.758065 L733,529.048387 L729.285714,529.048387 L729.285714,532.758065 C729.285714,534.803952 727.619857,536.467742 725.571429,536.467742 C723.523,536.467742 721.857143,534.803952 721.857143,532.758065 L721.857143,503.080645 C721.857143,498.988871 725.188857,495.66129 729.285714,495.66129 C733.382571,495.66129 736.714286,498.988871 736.714286,503.080645 L740.428571,503.080645 C740.428571,498.988871 743.760286,495.66129 747.857143,495.66129 C751.954,495.66129 755.285714,498.988871 755.285714,503.080645 L759,503.080645 L759,499.370968 C759,478.518871 742.497429,461.491452 721.857143,460.513952 Z M699.679143,494.887823 C697.693857,493.066371 695.045571,491.951613 692.142857,491.951613 C689.45,491.951613 686.978143,492.910565 685.050429,494.503871 C687.163857,479.290484 699.044,467.174677 714.138857,464.639113 C705.664714,472.479516 700.451714,483.3025 699.679143,494.887823 Z M729.285714,491.951613 C725.415429,491.951613 721.998286,493.932581 720,496.935565 C718.001714,493.932581 714.584571,491.951613 710.714286,491.951613 C707.924857,491.951613 705.382429,492.990323 703.425,494.689355 C704.349857,482.777581 710.378143,471.783952 720,464.589032 C729.621857,471.783952 735.650143,482.777581 736.575,494.689355 C734.617571,492.992177 732.075143,491.951613 729.285714,491.951613 Z M747.857143,491.951613 C744.954429,491.951613 742.306143,493.066371 740.320857,494.889677 C739.548286,483.304355 734.335286,472.481371 725.861143,464.640968 C740.956,467.174677 752.836143,479.292339 754.949571,494.505726 C753.021857,492.910565 750.55,491.951613 747.857143,491.951613 Z" id="Shape" stroke="none" fill="#000000" fill-rule="evenodd" opacity="0.456068841"></path>
</svg>